<?xml version="1.0" encoding="UTF-8" standalone="no"?>
<!DOCTYPE svg PUBLIC "-//W3C//DTD SVG 1.1//EN"
 "http://www.w3.org/Graphics/SVG/1.1/DTD/svg11.dtd">
<!-- Generated by graphviz version 2.47.0 (20210316.0004)
 -->
<!-- Title: dependencies Pages: 1 -->
<svg width="1454pt" height="287pt"
 viewBox="0.00 0.00 1454.00 287.00" xmlns="http://www.w3.org/2000/svg" xmlns:xlink="http://www.w3.org/1999/xlink">
<g id="graph0" class="graph" transform="scale(1 1) rotate(0) translate(4 283)">
<title>dependencies</title>
<polygon fill="white" stroke="transparent" points="-4,4 -4,-283 1450,-283 1450,4 -4,4"/>
<text text-anchor="start" x="702.01" y="-42.4" font-family="Times-12" font-weight="bold" font-size="14.00">Legend</text>
<polygon fill="#ffffb3" stroke="transparent" points="489,-10 489,-30 509,-30 509,-10 489,-10"/>
<text text-anchor="start" x="512.63" y="-15.4" font-family="Times-12" font-size="14.00"> &#160;Declarations</text>
<polygon fill="#8dd3c7" stroke="transparent" points="602,-10 602,-30 622,-30 622,-10 602,-10"/>
<text text-anchor="start" x="625.73" y="-15.4" font-family="Times-12" font-size="14.00"> &#160;Module</text>
<polygon fill="#80b1d3" stroke="transparent" points="688,-10 688,-30 708,-30 708,-10 688,-10"/>
<text text-anchor="start" x="711.78" y="-15.4" font-family="Times-12" font-size="14.00"> &#160;Bootstrap</text>
<polygon fill="#fdb462" stroke="transparent" points="785,-10 785,-30 805,-30 805,-10 785,-10"/>
<text text-anchor="start" x="808.67" y="-15.4" font-family="Times-12" font-size="14.00"> &#160;Providers</text>
<polygon fill="#fb8072" stroke="transparent" points="881,-10 881,-30 901,-30 901,-10 881,-10"/>
<text text-anchor="start" x="904.73" y="-15.4" font-family="Times-12" font-size="14.00"> &#160;Exports</text>
<g id="clust1" class="cluster">
<title>cluster_App</title>
<polygon fill="none" stroke="black" stroke-dasharray="1,5" points="348,-146 348,-271 868,-271 868,-146 348,-146"/>
</g>
<g id="clust3" class="cluster">
<title>cluster_App_imports</title>
<polygon fill="none" stroke="black" points="356,-154 356,-206 860,-206 860,-154 356,-154"/>
</g>
<g id="clust7" class="cluster">
<title>cluster_EmployeeGatewayModule</title>
<polygon fill="none" stroke="black" stroke-dasharray="1,5" points="191,-70 191,-138 339,-138 339,-70 191,-70"/>
</g>
<g id="clust9" class="cluster">
<title>cluster_EmployeeGatewayModule_imports</title>
<polygon fill="none" stroke="black" points="199,-78 199,-130 331,-130 331,-78 199,-78"/>
</g>
<g id="clust13" class="cluster">
<title>cluster_EmployeeModule</title>
<polygon fill="none" stroke="black" stroke-dasharray="1,5" points="8,-146 8,-214 340,-214 340,-146 8,-146"/>
</g>
<g id="clust16" class="cluster">
<title>cluster_EmployeeModule_exports</title>
<polygon fill="none" stroke="black" points="198,-154 198,-206 332,-206 332,-154 198,-154"/>
</g>
<g id="clust18" class="cluster">
<title>cluster_EmployeeModule_providers</title>
<polygon fill="none" stroke="black" points="16,-154 16,-206 190,-206 190,-154 16,-154"/>
</g>
<g id="clust19" class="cluster">
<title>cluster_MarketGatewayModule</title>
<polygon fill="none" stroke="black" stroke-dasharray="1,5" points="894,-70 894,-138 1026,-138 1026,-70 894,-70"/>
</g>
<g id="clust21" class="cluster">
<title>cluster_MarketGatewayModule_imports</title>
<polygon fill="none" stroke="black" points="902,-78 902,-130 1018,-130 1018,-78 902,-78"/>
</g>
<g id="clust25" class="cluster">
<title>cluster_MarketModule</title>
<polygon fill="none" stroke="black" stroke-dasharray="1,5" points="876,-146 876,-214 1170,-214 1170,-146 876,-146"/>
</g>
<g id="clust28" class="cluster">
<title>cluster_MarketModule_exports</title>
<polygon fill="none" stroke="black" points="1044,-154 1044,-206 1162,-206 1162,-154 1044,-154"/>
</g>
<g id="clust30" class="cluster">
<title>cluster_MarketModule_providers</title>
<polygon fill="none" stroke="black" points="884,-154 884,-206 1036,-206 1036,-154 884,-154"/>
</g>
<g id="clust31" class="cluster">
<title>cluster_UserGatewayModule</title>
<polygon fill="none" stroke="black" stroke-dasharray="1,5" points="1193,-70 1193,-138 1311,-138 1311,-70 1193,-70"/>
</g>
<g id="clust33" class="cluster">
<title>cluster_UserGatewayModule_imports</title>
<polygon fill="none" stroke="black" points="1201,-78 1201,-130 1303,-130 1303,-78 1201,-78"/>
</g>
<g id="clust37" class="cluster">
<title>cluster_UserModule</title>
<polygon fill="none" stroke="black" stroke-dasharray="1,5" points="1178,-146 1178,-214 1438,-214 1438,-146 1178,-146"/>
</g>
<g id="clust40" class="cluster">
<title>cluster_UserModule_exports</title>
<polygon fill="none" stroke="black" points="1326,-154 1326,-206 1430,-206 1430,-154 1326,-154"/>
</g>
<g id="clust42" class="cluster">
<title>cluster_UserModule_providers</title>
<polygon fill="none" stroke="black" points="1186,-154 1186,-206 1318,-206 1318,-154 1186,-154"/>
</g>
<!-- EmployeeGatewayModule -->
<g id="node1" class="node">
<title>EmployeeGatewayModule</title>
<polygon fill="#8dd3c7" stroke="black" points="530.06,-198 527.06,-202 506.06,-202 503.06,-198 363.94,-198 363.94,-162 530.06,-162 530.06,-198"/>
<text text-anchor="middle" x="447" y="-175.8" font-family="Times,serif" font-size="14.00">EmployeeGatewayModule</text>
</g>
<!-- App -->
<g id="node4" class="node">
<title>App</title>
<polygon fill="#8dd3c7" stroke="black" points="650,-263 647,-267 626,-267 623,-263 596,-263 596,-227 650,-227 650,-263"/>
<text text-anchor="middle" x="623" y="-240.8" font-family="Times,serif" font-size="14.00">App</text>
</g>
<!-- EmployeeGatewayModule&#45;&gt;App -->
<g id="edge1" class="edge">
<title>EmployeeGatewayModule&#45;&gt;App</title>
<path fill="none" stroke="black" d="M447,-198.11C447,-217.34 447,-245 447,-245 447,-245 585.89,-245 585.89,-245"/>
<polygon fill="black" stroke="black" points="585.89,-248.5 595.89,-245 585.89,-241.5 585.89,-248.5"/>
</g>
<!-- MarketGatewayModule -->
<g id="node2" class="node">
<title>MarketGatewayModule</title>
<polygon fill="#8dd3c7" stroke="black" points="697.72,-198 694.72,-202 673.72,-202 670.72,-198 548.28,-198 548.28,-162 697.72,-162 697.72,-198"/>
<text text-anchor="middle" x="623" y="-175.8" font-family="Times,serif" font-size="14.00">MarketGatewayModule</text>
</g>
<!-- MarketGatewayModule&#45;&gt;App -->
<g id="edge2" class="edge">
<title>MarketGatewayModule&#45;&gt;App</title>
<path fill="none" stroke="black" d="M623,-198.11C623,-198.11 623,-216.99 623,-216.99"/>
<polygon fill="black" stroke="black" points="619.5,-216.99 623,-226.99 626.5,-216.99 619.5,-216.99"/>
</g>
<!-- UserGatewayModule -->
<g id="node3" class="node">
<title>UserGatewayModule</title>
<polygon fill="#8dd3c7" stroke="black" points="851.72,-198 848.72,-202 827.72,-202 824.72,-198 716.28,-198 716.28,-162 851.72,-162 851.72,-198"/>
<text text-anchor="middle" x="784" y="-175.8" font-family="Times,serif" font-size="14.00">UserGatewayModule</text>
</g>
<!-- UserGatewayModule&#45;&gt;App -->
<g id="edge3" class="edge">
<title>UserGatewayModule&#45;&gt;App</title>
<path fill="none" stroke="black" d="M784,-198.11C784,-217.34 784,-245 784,-245 784,-245 660.31,-245 660.31,-245"/>
<polygon fill="black" stroke="black" points="660.31,-241.5 650.31,-245 660.31,-248.5 660.31,-241.5"/>
</g>
<!-- EmployeeModule -->
<g id="node5" class="node">
<title>EmployeeModule</title>
<polygon fill="#8dd3c7" stroke="black" points="323.31,-122 320.31,-126 299.31,-126 296.31,-122 206.69,-122 206.69,-86 323.31,-86 323.31,-122"/>
<text text-anchor="middle" x="265" y="-99.8" font-family="Times,serif" font-size="14.00">EmployeeModule</text>
</g>
<!-- EmployeeModule&#45;&gt;EmployeeGatewayModule -->
<g id="edge4" class="edge">
<title>EmployeeModule&#45;&gt;EmployeeGatewayModule</title>
<path fill="none" stroke="black" d="M323.34,-110C376.57,-110 447,-110 447,-110 447,-110 447,-151.97 447,-151.97"/>
<polygon fill="black" stroke="black" points="443.5,-151.97 447,-161.97 450.5,-151.97 443.5,-151.97"/>
</g>
<!-- EmployeeService  -->
<g id="node6" class="node">
<title>EmployeeService </title>
<polygon fill="#fb8072" stroke="black" points="324.24,-198 205.76,-198 205.76,-162 324.24,-162 324.24,-198"/>
<text text-anchor="middle" x="265" y="-175.8" font-family="Times,serif" font-size="14.00">EmployeeService </text>
</g>
<!-- EmployeeModule&#45;&gt;EmployeeService  -->
<g id="edge5" class="edge">
<title>EmployeeModule&#45;&gt;EmployeeService </title>
<path fill="none" stroke="black" stroke-dasharray="5,2" d="M265,-122.01C265,-122.01 265,-151.85 265,-151.85"/>
<polygon fill="black" stroke="black" points="261.5,-151.85 265,-161.85 268.5,-151.85 261.5,-151.85"/>
</g>
<!-- EmployeeService -->
<g id="node7" class="node">
<title>EmployeeService</title>
<ellipse fill="#fdb462" stroke="black" cx="103" cy="-180" rx="79.29" ry="18"/>
<text text-anchor="middle" x="103" y="-175.8" font-family="Times,serif" font-size="14.00">EmployeeService</text>
</g>
<!-- EmployeeService&#45;&gt;EmployeeModule -->
<g id="edge6" class="edge">
<title>EmployeeService&#45;&gt;EmployeeModule</title>
<path fill="none" stroke="black" d="M103,-161.99C103,-139.51 103,-104 103,-104 103,-104 196.51,-104 196.51,-104"/>
<polygon fill="black" stroke="black" points="196.51,-107.5 206.51,-104 196.51,-100.5 196.51,-107.5"/>
</g>
<!-- MarketModule -->
<g id="node8" class="node">
<title>MarketModule</title>
<polygon fill="#8dd3c7" stroke="black" points="1009.97,-122 1006.97,-126 985.97,-126 982.97,-122 910.03,-122 910.03,-86 1009.97,-86 1009.97,-122"/>
<text text-anchor="middle" x="960" y="-99.8" font-family="Times,serif" font-size="14.00">MarketModule</text>
</g>
<!-- MarketModule&#45;&gt;MarketGatewayModule -->
<g id="edge7" class="edge">
<title>MarketModule&#45;&gt;MarketGatewayModule</title>
<path fill="none" stroke="black" d="M909.91,-98C816.03,-98 623,-98 623,-98 623,-98 623,-151.8 623,-151.8"/>
<polygon fill="black" stroke="black" points="619.5,-151.8 623,-161.8 626.5,-151.8 619.5,-151.8"/>
</g>
<!-- MarketService  -->
<g id="node9" class="node">
<title>MarketService </title>
<polygon fill="#fb8072" stroke="black" points="1153.9,-198 1052.1,-198 1052.1,-162 1153.9,-162 1153.9,-198"/>
<text text-anchor="middle" x="1103" y="-175.8" font-family="Times,serif" font-size="14.00">MarketService </text>
</g>
<!-- MarketModule&#45;&gt;MarketService  -->
<g id="edge8" class="edge">
<title>MarketModule&#45;&gt;MarketService </title>
<path fill="none" stroke="black" stroke-dasharray="5,2" d="M1010.01,-104C1051.25,-104 1103,-104 1103,-104 1103,-104 1103,-151.99 1103,-151.99"/>
<polygon fill="black" stroke="black" points="1099.5,-151.99 1103,-161.99 1106.5,-151.99 1099.5,-151.99"/>
</g>
<!-- MarketService -->
<g id="node10" class="node">
<title>MarketService</title>
<ellipse fill="#fdb462" stroke="black" cx="960" cy="-180" rx="67.75" ry="18"/>
<text text-anchor="middle" x="960" y="-175.8" font-family="Times,serif" font-size="14.00">MarketService</text>
</g>
<!-- MarketService&#45;&gt;MarketModule -->
<g id="edge9" class="edge">
<title>MarketService&#45;&gt;MarketModule</title>
<path fill="none" stroke="black" d="M960,-161.99C960,-161.99 960,-132.15 960,-132.15"/>
<polygon fill="black" stroke="black" points="963.5,-132.15 960,-122.15 956.5,-132.15 963.5,-132.15"/>
</g>
<!-- UserModule -->
<g id="node11" class="node">
<title>UserModule</title>
<polygon fill="#8dd3c7" stroke="black" points="1294.98,-122 1291.98,-126 1270.98,-126 1267.98,-122 1209.02,-122 1209.02,-86 1294.98,-86 1294.98,-122"/>
<text text-anchor="middle" x="1252" y="-99.8" font-family="Times,serif" font-size="14.00">UserModule</text>
</g>
<!-- UserModule&#45;&gt;UserGatewayModule -->
<g id="edge10" class="edge">
<title>UserModule&#45;&gt;UserGatewayModule</title>
<path fill="none" stroke="black" d="M1237.67,-122.11C1237.67,-131.9 1237.67,-142 1237.67,-142 1237.67,-142 784,-142 784,-142 784,-142 784,-151.89 784,-151.89"/>
<polygon fill="black" stroke="black" points="780.5,-151.89 784,-161.89 787.5,-151.89 780.5,-151.89"/>
</g>
<!-- UserService  -->
<g id="node12" class="node">
<title>UserService </title>
<polygon fill="#fb8072" stroke="black" points="1421.9,-198 1334.1,-198 1334.1,-162 1421.9,-162 1421.9,-198"/>
<text text-anchor="middle" x="1378" y="-175.8" font-family="Times,serif" font-size="14.00">UserService </text>
</g>
<!-- UserModule&#45;&gt;UserService  -->
<g id="edge11" class="edge">
<title>UserModule&#45;&gt;UserService </title>
<path fill="none" stroke="black" stroke-dasharray="5,2" d="M1295.01,-104C1331.51,-104 1378,-104 1378,-104 1378,-104 1378,-151.99 1378,-151.99"/>
<polygon fill="black" stroke="black" points="1374.5,-151.99 1378,-161.99 1381.5,-151.99 1374.5,-151.99"/>
</g>
<!-- UserService -->
<g id="node13" class="node">
<title>UserService</title>
<ellipse fill="#fdb462" stroke="black" cx="1252" cy="-180" rx="58.44" ry="18"/>
<text text-anchor="middle" x="1252" y="-175.8" font-family="Times,serif" font-size="14.00">UserService</text>
</g>
<!-- UserService&#45;&gt;UserModule -->
<g id="edge12" class="edge">
<title>UserService&#45;&gt;UserModule</title>
<path fill="none" stroke="black" d="M1266.33,-162.37C1266.33,-162.37 1266.33,-132.06 1266.33,-132.06"/>
<polygon fill="black" stroke="black" points="1269.83,-132.06 1266.33,-122.06 1262.83,-132.06 1269.83,-132.06"/>
</g>
</g>
</svg>
