<?xml version="1.0" encoding="UTF-8" standalone="no"?>
<!DOCTYPE svg PUBLIC "-//W3C//DTD SVG 1.1//EN"
 "http://www.w3.org/Graphics/SVG/1.1/DTD/svg11.dtd">
<!-- Generated by graphviz version 2.47.0 (20210316.0004)
 -->
<!-- Title: dependencies Pages: 1 -->
<svg width="544pt" height="211pt"
 viewBox="0.00 0.00 544.00 211.00" xmlns="http://www.w3.org/2000/svg" xmlns:xlink="http://www.w3.org/1999/xlink">
<g id="graph0" class="graph" transform="scale(1 1) rotate(0) translate(4 207)">
<title>dependencies</title>
<polygon fill="white" stroke="transparent" points="-4,4 -4,-207 540,-207 540,4 -4,4"/>
<text text-anchor="start" x="247.01" y="-42.4" font-family="Times-12" font-weight="bold" font-size="14.00">Legend</text>
<polygon fill="#ffffb3" stroke="transparent" points="34,-10 34,-30 54,-30 54,-10 34,-10"/>
<text text-anchor="start" x="57.63" y="-15.4" font-family="Times-12" font-size="14.00"> &#160;Declarations</text>
<polygon fill="#8dd3c7" stroke="transparent" points="147,-10 147,-30 167,-30 167,-10 147,-10"/>
<text text-anchor="start" x="170.73" y="-15.4" font-family="Times-12" font-size="14.00"> &#160;Module</text>
<polygon fill="#80b1d3" stroke="transparent" points="233,-10 233,-30 253,-30 253,-10 233,-10"/>
<text text-anchor="start" x="256.78" y="-15.4" font-family="Times-12" font-size="14.00"> &#160;Bootstrap</text>
<polygon fill="#fdb462" stroke="transparent" points="330,-10 330,-30 350,-30 350,-10 330,-10"/>
<text text-anchor="start" x="353.67" y="-15.4" font-family="Times-12" font-size="14.00"> &#160;Providers</text>
<polygon fill="#fb8072" stroke="transparent" points="426,-10 426,-30 446,-30 446,-10 426,-10"/>
<text text-anchor="start" x="449.73" y="-15.4" font-family="Times-12" font-size="14.00"> &#160;Exports</text>
<g id="clust1" class="cluster">
<title>cluster_App</title>
<polygon fill="none" stroke="black" stroke-dasharray="1,5" points="8,-70 8,-195 528,-195 528,-70 8,-70"/>
</g>
<g id="clust3" class="cluster">
<title>cluster_App_imports</title>
<polygon fill="none" stroke="black" points="16,-78 16,-130 520,-130 520,-78 16,-78"/>
</g>
<!-- EmployeeGatewayModule -->
<g id="node1" class="node">
<title>EmployeeGatewayModule</title>
<polygon fill="#8dd3c7" stroke="black" points="512.06,-122 509.06,-126 488.06,-126 485.06,-122 345.94,-122 345.94,-86 512.06,-86 512.06,-122"/>
<text text-anchor="middle" x="429" y="-99.8" font-family="Times,serif" font-size="14.00">EmployeeGatewayModule</text>
</g>
<!-- App -->
<g id="node4" class="node">
<title>App</title>
<polygon fill="#8dd3c7" stroke="black" points="280,-187 277,-191 256,-191 253,-187 226,-187 226,-151 280,-151 280,-187"/>
<text text-anchor="middle" x="253" y="-164.8" font-family="Times,serif" font-size="14.00">App</text>
</g>
<!-- EmployeeGatewayModule&#45;&gt;App -->
<g id="edge1" class="edge">
<title>EmployeeGatewayModule&#45;&gt;App</title>
<path fill="none" stroke="black" d="M429,-122.11C429,-141.34 429,-169 429,-169 429,-169 290.11,-169 290.11,-169"/>
<polygon fill="black" stroke="black" points="290.11,-165.5 280.11,-169 290.11,-172.5 290.11,-165.5"/>
</g>
<!-- MarketGatewayModule -->
<g id="node2" class="node">
<title>MarketGatewayModule</title>
<polygon fill="#8dd3c7" stroke="black" points="327.72,-122 324.72,-126 303.72,-126 300.72,-122 178.28,-122 178.28,-86 327.72,-86 327.72,-122"/>
<text text-anchor="middle" x="253" y="-99.8" font-family="Times,serif" font-size="14.00">MarketGatewayModule</text>
</g>
<!-- MarketGatewayModule&#45;&gt;App -->
<g id="edge2" class="edge">
<title>MarketGatewayModule&#45;&gt;App</title>
<path fill="none" stroke="black" d="M253,-122.11C253,-122.11 253,-140.99 253,-140.99"/>
<polygon fill="black" stroke="black" points="249.5,-140.99 253,-150.99 256.5,-140.99 249.5,-140.99"/>
</g>
<!-- UserGatewayModule -->
<g id="node3" class="node">
<title>UserGatewayModule</title>
<polygon fill="#8dd3c7" stroke="black" points="159.72,-122 156.72,-126 135.72,-126 132.72,-122 24.28,-122 24.28,-86 159.72,-86 159.72,-122"/>
<text text-anchor="middle" x="92" y="-99.8" font-family="Times,serif" font-size="14.00">UserGatewayModule</text>
</g>
<!-- UserGatewayModule&#45;&gt;App -->
<g id="edge3" class="edge">
<title>UserGatewayModule&#45;&gt;App</title>
<path fill="none" stroke="black" d="M92,-122.11C92,-141.34 92,-169 92,-169 92,-169 215.69,-169 215.69,-169"/>
<polygon fill="black" stroke="black" points="215.69,-172.5 225.69,-169 215.69,-165.5 215.69,-172.5"/>
</g>
</g>
</svg>
